<!-- SVG Icon Sprite System -->
<!-- Generated from Lucide Icons for Watchtower v2 -->
<svg xmlns="http://www.w3.org/2000/svg" style="display: none;">
  
  <!-- Navigation Icons -->
  <symbol id="icon-home" viewBox="0 0 24 24">
    <path d="M3 9l9-7 9 7v11a2 2 0 0 1-2 2H5a2 2 0 0 1-2-2z"></path>
    <polyline points="9,22 9,12 15,12 15,22"></polyline>
  </symbol>
  
  <symbol id="icon-users" viewBox="0 0 24 24">
    <path d="M17 21v-2a4 4 0 0 0-4-4H5a4 4 0 0 0-4 4v2"></path>
    <circle cx="9" cy="7" r="4"></circle>
    <path d="M23 21v-2a4 4 0 0 0-3-3.87"></path>
    <path d="M16 3.13a4 4 0 0 1 0 7.75"></path>
  </symbol>
  
  <symbol id="icon-phone" viewBox="0 0 24 24">
    <path d="M22 16.92v3a2 2 0 0 1-2.18 2 19.79 19.79 0 0 1-8.63-3.07 19.5 19.5 0 0 1-6-6 19.79 19.79 0 0 1-3.07-8.67A2 2 0 0 1 4.11 2h3a2 2 0 0 1 2 1.72 12.84 12.84 0 0 0 .7 2.81 2 2 0 0 1-.45 2.11L8.09 9.91a16 16 0 0 0 6 6l1.27-1.27a2 2 0 0 1 2.11-.45 12.84 12.84 0 0 0 2.81.7A2 2 0 0 1 22 16.92z"></path>
  </symbol>
  
  <symbol id="icon-campaigns" viewBox="0 0 24 24">
    <path d="M11 15h2a2 2 0 1 0 0-4h-3c-.6 0-1-.4-1-1s.4-1 1-1h4.5"></path>
    <circle cx="12" cy="12" r="10"></circle>
  </symbol>
  
  <symbol id="icon-analytics" viewBox="0 0 24 24">
    <path d="M3 3v18h18"></path>
    <path d="M18.7 8l-5.1 5.2-2.8-2.7L7 14.3"></path>
  </symbol>
  
  <symbol id="icon-tickets" viewBox="0 0 24 24">
    <path d="M2 9a3 3 0 0 1 0 6v2a2 2 0 0 0 2 2h16a2 2 0 0 0 2-2v-2a3 3 0 0 1 0-6V7a2 2 0 0 0-2-2H4a2 2 0 0 0-2 2v2Z"></path>
    <path d="M13 5v2"></path>
    <path d="M13 17v2"></path>
    <path d="M13 11v2"></path>
  </symbol>
  
  <symbol id="icon-reports" viewBox="0 0 24 24">
    <path d="M14 2H6a2 2 0 0 0-2 2v16a2 2 0 0 0 2 2h12a2 2 0 0 0 2-2V8z"></path>
    <polyline points="14,2 14,8 20,8"></polyline>
    <line x1="16" y1="13" x2="8" y2="13"></line>
    <line x1="16" y1="17" x2="8" y2="17"></line>
    <polyline points="10,9 9,9 8,9"></polyline>
  </symbol>
  
  <!-- Action Icons -->
  <symbol id="icon-search" viewBox="0 0 24 24">
    <circle cx="11" cy="11" r="8"></circle>
    <path d="M21 21l-4.35-4.35"></path>
  </symbol>
  
  <symbol id="icon-plus" viewBox="0 0 24 24">
    <line x1="12" y1="5" x2="12" y2="19"></line>
    <line x1="5" y1="12" x2="19" y2="12"></line>
  </symbol>
  
  <symbol id="icon-settings" viewBox="0 0 24 24">
    <path d="M12.22 2h-.44a2 2 0 0 0-2 2v.18a2 2 0 0 1-1 1.73l-.43.25a2 2 0 0 1-2 0l-.15-.08a2 2 0 0 0-2.73.73l-.22.38a2 2 0 0 0 .73 2.73l.15.1a2 2 0 0 1 1 1.72v.51a2 2 0 0 1-1 1.74l-.15.09a2 2 0 0 0-.73 2.73l.22.38a2 2 0 0 0 2.73.73l.15-.08a2 2 0 0 1 2 0l.43.25a2 2 0 0 1 1 1.73V20a2 2 0 0 0 2 2h.44a2 2 0 0 0 2-2v-.18a2 2 0 0 1 1-1.73l.43-.25a2 2 0 0 1 2 0l.15.08a2 2 0 0 0 2.73-.73l-.22-.39a2 2 0 0 0-.73-2.73l-.15-.08a2 2 0 0 1-1-1.74v-.5a2 2 0 0 1 1-1.74l.15-.09a2 2 0 0 0 .73-2.73l-.22-.38a2 2 0 0 0-2.73-.73l-.15.08a2 2 0 0 1-2 0l-.43-.25a2 2 0 0 1-1-1.73V4a2 2 0 0 0-2-2z"></path>
    <circle cx="12" cy="12" r="3"></circle>
  </symbol>
  
  <symbol id="icon-chevron-down" viewBox="0 0 24 24">
    <polyline points="6,9 12,15 18,9"></polyline>
  </symbol>
  
  <symbol id="icon-chevron-right" viewBox="0 0 24 24">
    <polyline points="9,18 15,12 9,6"></polyline>
  </symbol>
  
  <symbol id="icon-help-circle" viewBox="0 0 24 24">
    <circle cx="12" cy="12" r="10"></circle>
    <path d="M9.09 9a3 3 0 0 1 5.83 1c0 2-3 3-3 3"></path>
    <line x1="12" y1="17" x2="12.01" y2="17"></line>
  </symbol>
  
  <symbol id="icon-external-link" viewBox="0 0 24 24">
    <path d="M18 13v6a2 2 0 0 1-2 2H5a2 2 0 0 1-2-2V8a2 2 0 0 1 2-2h6"></path>
    <polyline points="15,3 21,3 21,9"></polyline>
    <line x1="10" y1="14" x2="21" y2="3"></line>
  </symbol>
  
  <!-- AI & Model Icons -->
  <symbol id="icon-brain" viewBox="0 0 24 24">
    <path d="M12 2a3 3 0 0 0-3 3c0 1.5-2 1.5-2 0a5 5 0 0 1 10 0c0 1.5-2 1.5-2 0a3 3 0 0 0-3-3z"></path>
    <path d="M12 14a3 3 0 0 1-3 3c-1.5 0-1.5 2 0 2a5 5 0 0 0 0-10c-1.5 0-1.5 2 0 2a3 3 0 0 1 3 3z"></path>
    <path d="M12 14a3 3 0 0 0 3 3c1.5 0 1.5 2 0 2a5 5 0 0 1 0-10c1.5 0 1.5 2 0 2a3 3 0 0 0-3 3z"></path>
  </symbol>
  
  <symbol id="icon-mic" viewBox="0 0 24 24">
    <path d="M12 1a3 3 0 0 0-3 3v8a3 3 0 0 0 6 0V4a3 3 0 0 0-3-3z"></path>
    <path d="M19 10v2a7 7 0 0 1-14 0v-2"></path>
    <line x1="12" y1="19" x2="12" y2="23"></line>
    <line x1="8" y1="23" x2="16" y2="23"></line>
  </symbol>
  
  <symbol id="icon-headphones" viewBox="0 0 24 24">
    <path d="M3 18v-6a9 9 0 0 1 18 0v6"></path>
    <path d="M21 19a2 2 0 0 1-2 2h-1a2 2 0 0 1-2-2v-3a2 2 0 0 1 2-2h3zM3 19a2 2 0 0 0 2 2h1a2 2 0 0 0 2-2v-3a2 2 0 0 0-2-2H3z"></path>
  </symbol>
  
  <symbol id="icon-waveform" viewBox="0 0 24 24">
    <path d="M2 6h20M2 12h20M2 18h20"></path>
  </symbol>
  
  <!-- Tool Icons -->
  <symbol id="icon-wrench" viewBox="0 0 24 24">
    <path d="M14.7 6.3a1 1 0 0 0 0 1.4l1.6 1.6a1 1 0 0 0 1.4 0l3.77-3.77a6 6 0 0 1-7.94 7.94l-6.91 6.91a2.12 2.12 0 0 1-3-3l6.91-6.91a6 6 0 0 1 7.94-7.94l-3.76 3.76z"></path>
  </symbol>
  
  <symbol id="icon-zap" viewBox="0 0 24 24">
    <polygon points="13,2 3,14 12,14 11,22 21,10 12,10 13,2"></polygon>
  </symbol>
  
  <!-- Status Icons -->
  <symbol id="icon-check-circle" viewBox="0 0 24 24">
    <path d="M22 11.08V12a10 10 0 1 1-5.93-9.14"></path>
    <polyline points="22,4 12,14.01 9,11.01"></polyline>
  </symbol>
  
  <symbol id="icon-x-circle" viewBox="0 0 24 24">
    <circle cx="12" cy="12" r="10"></circle>
    <line x1="15" y1="9" x2="9" y2="15"></line>
    <line x1="9" y1="9" x2="15" y2="15"></line>
  </symbol>
  
  <symbol id="icon-alert-circle" viewBox="0 0 24 24">
    <circle cx="12" cy="12" r="10"></circle>
    <line x1="12" y1="8" x2="12" y2="12"></line>
    <line x1="12" y1="16" x2="12.01" y2="16"></line>
  </symbol>
  
  <!-- Metric Icons -->
  <symbol id="icon-dollar-sign" viewBox="0 0 24 24">
    <line x1="12" y1="1" x2="12" y2="23"></line>
    <path d="M17 5H9.5a3.5 3.5 0 0 0 0 7h5a3.5 3.5 0 0 1 0 7H6"></path>
  </symbol>
  
  <symbol id="icon-clock" viewBox="0 0 24 24">
    <circle cx="12" cy="12" r="10"></circle>
    <polyline points="12,6 12,12 16,14"></polyline>
  </symbol>
  
  <symbol id="icon-activity" viewBox="0 0 24 24">
    <polyline points="22,12 18,12 15,21 9,3 6,12 2,12"></polyline>
  </symbol>
  
  <symbol id="icon-trending-up" viewBox="0 0 24 24">
    <polyline points="22,7 13.5,15.5 8.5,10.5 2,17"></polyline>
    <polyline points="16,7 22,7 22,13"></polyline>
  </symbol>
  
  <!-- Organization Icons -->
  <symbol id="icon-building" viewBox="0 0 24 24">
    <rect x="4" y="2" width="16" height="20" rx="2" ry="2"></rect>
    <path d="M9 22v-4h6v4"></path>
    <path d="M8 6h.01"></path>
    <path d="M16 6h.01"></path>
    <path d="M12 6h.01"></path>
    <path d="M12 10h.01"></path>
    <path d="M12 14h.01"></path>
    <path d="M16 10h.01"></path>
    <path d="M16 14h.01"></path>
    <path d="M8 10h.01"></path>
    <path d="M8 14h.01"></path>
  </symbol>
  
  <symbol id="icon-credit-card" viewBox="0 0 24 24">
    <rect x="1" y="4" width="22" height="16" rx="2" ry="2"></rect>
    <line x1="1" y1="10" x2="23" y2="10"></line>
  </symbol>
  
  <!-- Menu & Layout Icons -->
  <symbol id="icon-menu" viewBox="0 0 24 24">
    <line x1="3" y1="6" x2="21" y2="6"></line>
    <line x1="3" y1="12" x2="21" y2="12"></line>
    <line x1="3" y1="18" x2="21" y2="18"></line>
  </symbol>
  
  <symbol id="icon-x" viewBox="0 0 24 24">
    <line x1="18" y1="6" x2="6" y2="18"></line>
    <line x1="6" y1="6" x2="18" y2="18"></line>
  </symbol>
  
  <!-- Documentation Icons -->
  <symbol id="icon-book-open" viewBox="0 0 24 24">
    <path d="M2 3h6a4 4 0 0 1 4 4v14a3 3 0 0 0-3-3H2z"></path>
    <path d="M22 3h-6a4 4 0 0 0-4 4v14a3 3 0 0 1 3-3h7z"></path>
  </symbol>
  
  <!-- Communication Icons -->
  <symbol id="icon-message-circle" viewBox="0 0 24 24">
    <path d="M21 11.5a8.38 8.38 0 0 1-.9 3.8 8.5 8.5 0 0 1-7.6 4.7 8.38 8.38 0 0 1-3.8-.9L3 21l1.9-5.7a8.38 8.38 0 0 1-.9-3.8 8.5 8.5 0 0 1 4.7-7.6 8.38 8.38 0 0 1 3.8-.9h.5a8.48 8.48 0 0 1 8 8v.5z"></path>
  </symbol>
  
  <!-- Provider/Integration Icons -->
  <symbol id="icon-globe" viewBox="0 0 24 24">
    <circle cx="12" cy="12" r="10"></circle>
    <line x1="2" y1="12" x2="22" y2="12"></line>
    <path d="M12 2a15.3 15.3 0 0 1 4 10 15.3 15.3 0 0 1-4 10 15.3 15.3 0 0 1-4-10 15.3 15.3 0 0 1 4-10z"></path>
  </symbol>
  
  <symbol id="icon-server" viewBox="0 0 24 24">
    <rect x="2" y="3" width="20" height="4" rx="1" ry="1"></rect>
    <rect x="2" y="9" width="20" height="4" rx="1" ry="1"></rect>
    <rect x="2" y="15" width="20" height="4" rx="1" ry="1"></rect>
    <line x1="6" y1="5" x2="6.01" y2="5"></line>
    <line x1="6" y1="11" x2="6.01" y2="11"></line>
    <line x1="6" y1="17" x2="6.01" y2="17"></line>
  </symbol>
  
</svg>
